<svg xmlns="http://www.w3.org/2000/svg" viewBox="0 0 80 80">
  <defs>
    <filter id="gf0601" x="-60%" y="-60%" width="220%" height="220%">
      <feGaussianBlur stdDeviation="0" result="blur"/>
      <feMerge><feMergeNode in="blur"/><feMergeNode in="SourceGraphic"/></feMerge>
    </filter>
    <radialGradient id="bgg0601" cx="50%" cy="50%" r="50%">
      <stop offset="0%" stop-color="#C89868" stop-opacity="0.7"/>
      <stop offset="100%" stop-color="#A07040" stop-opacity="0.9"/>
    </radialGradient>
  </defs>
  
  <circle cx="40" cy="40" r="40" fill="url(#bgg0601)" filter="url(#gf0601)"/>
  <ellipse cx="40" cy="43" rx="7" ry="8" fill="#A07040"/>
    <ellipse cx="40" cy="43" rx="5" ry="6" fill="#C89868" opacity="0.35"/>
    <path d="M34,39 Q31,28.0 36,25.0" stroke="#A07040" stroke-width="2" fill="none" stroke-linecap="round"/>
    <path d="M37,39 Q34,26.5 39,23.5" stroke="#A07040" stroke-width="2" fill="none" stroke-linecap="round"/>
    <path d="M40,39 Q37,25.0 42,22.0" stroke="#A07040" stroke-width="2" fill="none" stroke-linecap="round"/>
    <path d="M43,39 Q40,26.5 45,23.5" stroke="#A07040" stroke-width="2" fill="none" stroke-linecap="round"/>
    <path d="M46,39 Q43,28.0 48,25.0" stroke="#A07040" stroke-width="2" fill="none" stroke-linecap="round"/>
    <polygon points="32,41 26,25 36,39" fill="#A07040"/>
    <polygon points="48,41 54,25 44,39" fill="#A07040"/>
    <circle cx="35" cy="40" r="1.2" fill="#1A1A1A"/>
    <circle cx="35.7" cy="39.3" r="0.42" fill="white" opacity="0.8"/>
    <circle cx="45" cy="40" r="1.2" fill="#1A1A1A"/>
    <circle cx="45.7" cy="39.3" r="0.42" fill="white" opacity="0.8"/>
  
  
</svg>