<svg xmlns="http://www.w3.org/2000/svg" viewBox="0 0 80 80">
  <defs>
    <filter id="gf0609" x="-60%" y="-60%" width="220%" height="220%">
      <feGaussianBlur stdDeviation="4" result="blur"/>
      <feMerge><feMergeNode in="blur"/><feMergeNode in="SourceGraphic"/></feMerge>
    </filter>
    <radialGradient id="bgg0609" cx="50%" cy="50%" r="50%">
      <stop offset="0%" stop-color="#C89868" stop-opacity="0.7"/>
      <stop offset="100%" stop-color="#A07040" stop-opacity="0.9"/>
    </radialGradient>
  </defs>
  <circle cx="40" cy="40" r="36.0" fill="none" stroke="#C8986880" stroke-width="1" stroke-dasharray="3,3" opacity="0.5"/><circle cx="40" cy="38" r="40.0" fill="none" stroke="#C8986880" stroke-width="1" stroke-dasharray="3,3" opacity="0.5"/>
  <circle cx="40" cy="40" r="40" fill="url(#bgg0609)" filter="url(#gf0609)"/>
  <ellipse cx="40" cy="43" rx="14" ry="15" fill="#A07040"/>
    <ellipse cx="40" cy="43" rx="12" ry="13" fill="#C89868" opacity="0.35"/>
    <path d="M34,32 Q31,17.0 36,14.0" stroke="#A07040" stroke-width="2" fill="none" stroke-linecap="round"/>
    <path d="M37,32 Q34,15.5 39,12.5" stroke="#A07040" stroke-width="2" fill="none" stroke-linecap="round"/>
    <path d="M40,32 Q37,14.0 42,11.0" stroke="#A07040" stroke-width="2" fill="none" stroke-linecap="round"/>
    <path d="M43,32 Q40,15.5 45,12.5" stroke="#A07040" stroke-width="2" fill="none" stroke-linecap="round"/>
    <path d="M46,32 Q43,17.0 48,14.0" stroke="#A07040" stroke-width="2" fill="none" stroke-linecap="round"/>
    <polygon points="32,34 26,18 36,32" fill="#A07040"/>
    <polygon points="48,34 54,18 44,32" fill="#A07040"/>
    <circle cx="35" cy="40" r="2.8" fill="#1A1A1A"/>
    <circle cx="35.7" cy="39.3" r="0.9799999999999999" fill="white" opacity="0.8"/>
    <circle cx="45" cy="40" r="2.8" fill="#1A1A1A"/>
    <circle cx="45.7" cy="39.3" r="0.9799999999999999" fill="white" opacity="0.8"/>
  <circle cx="20" cy="20" r="1.5" fill="#C89868C0" opacity="0.9"/><circle cx="60" cy="20" r="1.6" fill="#C89868C0" opacity="0.9"/><circle cx="20" cy="60" r="1.7" fill="#C89868C0" opacity="0.9"/><circle cx="60" cy="60" r="1.8" fill="#C89868C0" opacity="0.9"/><circle cx="40" cy="12" r="1.9" fill="#C89868C0" opacity="0.9"/><circle cx="12" cy="40" r="2.0" fill="#C89868C0" opacity="0.9"/>
  
</svg>