<svg xmlns="http://www.w3.org/2000/svg" viewBox="0 0 80 80">
  <defs>
    <filter id="gf0112" x="-60%" y="-60%" width="220%" height="220%">
      <feGaussianBlur stdDeviation="6" result="blur"/>
      <feMerge><feMergeNode in="blur"/><feMergeNode in="SourceGraphic"/></feMerge>
    </filter>
    <radialGradient id="bgg0112" cx="50%" cy="50%" r="50%">
      <stop offset="0%" stop-color="#C3B398" stop-opacity="0.7"/>
      <stop offset="100%" stop-color="#9B8B70" stop-opacity="0.9"/>
    </radialGradient>
  </defs>
  <circle cx="40" cy="40" r="37.5" fill="none" stroke="#C3B39880" stroke-width="1" stroke-dasharray="3,3" opacity="0.5"/><circle cx="40" cy="38" r="41.5" fill="none" stroke="#C3B39880" stroke-width="1" stroke-dasharray="3,3" opacity="0.5"/><circle cx="40" cy="36" r="45.5" fill="none" stroke="#C3B39880" stroke-width="1" stroke-dasharray="3,3" opacity="0.5"/>
  <circle cx="40" cy="40" r="40" fill="url(#bgg0112)" filter="url(#gf0112)"/>
  <ellipse cx="40" cy="42" rx="19" ry="17" fill="#9B8B70"/>
    <ellipse cx="40" cy="42" rx="17" ry="15" fill="#C3B398" opacity="0.3"/>
    <path d="M28,29 Q20,15 26,9" stroke="#9B8B70" stroke-width="6" fill="none" stroke-linecap="round"/>
    <path d="M52,29 Q60,15 54,9" stroke="#9B8B70" stroke-width="6" fill="none" stroke-linecap="round"/>
    <ellipse cx="40" cy="53" rx="6" ry="4" fill="#C3B398" opacity="0.6"/>
    <circle cx="34" cy="38" r="3.1" fill="#1A1A1A"/>
    <circle cx="34.7" cy="37.3" r="1.085" fill="white" opacity="0.8"/>
    <circle cx="46" cy="38" r="3.1" fill="#1A1A1A"/>
    <circle cx="46.7" cy="37.3" r="1.085" fill="white" opacity="0.8"/>
  <circle cx="20" cy="20" r="1.5" fill="#C3B398C0" opacity="0.9"/><circle cx="60" cy="20" r="1.6" fill="#C3B398C0" opacity="0.9"/><circle cx="20" cy="60" r="1.7" fill="#C3B398C0" opacity="0.9"/><circle cx="60" cy="60" r="1.8" fill="#C3B398C0" opacity="0.9"/><circle cx="40" cy="12" r="1.9" fill="#C3B398C0" opacity="0.9"/><circle cx="12" cy="40" r="2.0" fill="#C3B398C0" opacity="0.9"/><circle cx="68" cy="40" r="2.1" fill="#C3B398C0" opacity="0.9"/><circle cx="10" cy="10" r="1.4" fill="#C3B398C0" opacity="0.8"/><circle cx="70" cy="10" r="1.5" fill="#C3B398C0" opacity="0.8"/><circle cx="10" cy="70" r="1.3" fill="#C3B398C0" opacity="0.8"/><circle cx="70" cy="70" r="1.4" fill="#C3B398C0" opacity="0.8"/><circle cx="40" cy="70" r="1.2" fill="#C3B398C0" opacity="0.7"/>
  <text x="40" y="76" text-anchor="middle" font-size="6.5" fill="#C3B398C0" font-weight="bold" font-family="sans-serif">Lv12</text>
</svg>