<svg xmlns="http://www.w3.org/2000/svg" viewBox="0 0 80 80">
  <defs>
    <filter id="gf0603" x="-60%" y="-60%" width="220%" height="220%">
      <feGaussianBlur stdDeviation="0" result="blur"/>
      <feMerge><feMergeNode in="blur"/><feMergeNode in="SourceGraphic"/></feMerge>
    </filter>
    <radialGradient id="bgg0603" cx="50%" cy="50%" r="50%">
      <stop offset="0%" stop-color="#C89868" stop-opacity="0.7"/>
      <stop offset="100%" stop-color="#A07040" stop-opacity="0.9"/>
    </radialGradient>
  </defs>
  
  <circle cx="40" cy="40" r="40" fill="url(#bgg0603)" filter="url(#gf0603)"/>
  <ellipse cx="40" cy="43" rx="11" ry="12" fill="#A07040"/>
    <ellipse cx="40" cy="43" rx="9" ry="10" fill="#C89868" opacity="0.35"/>
    <path d="M34,35 Q31,23.0 36,20.0" stroke="#A07040" stroke-width="2" fill="none" stroke-linecap="round"/>
    <path d="M37,35 Q34,21.5 39,18.5" stroke="#A07040" stroke-width="2" fill="none" stroke-linecap="round"/>
    <path d="M40,35 Q37,20.0 42,17.0" stroke="#A07040" stroke-width="2" fill="none" stroke-linecap="round"/>
    <path d="M43,35 Q40,21.5 45,18.5" stroke="#A07040" stroke-width="2" fill="none" stroke-linecap="round"/>
    <path d="M46,35 Q43,23.0 48,20.0" stroke="#A07040" stroke-width="2" fill="none" stroke-linecap="round"/>
    <polygon points="32,37 26,21 36,35" fill="#A07040"/>
    <polygon points="48,37 54,21 44,35" fill="#A07040"/>
    <circle cx="35" cy="40" r="1.9" fill="#1A1A1A"/>
    <circle cx="35.7" cy="39.3" r="0.6649999999999999" fill="white" opacity="0.8"/>
    <circle cx="45" cy="40" r="1.9" fill="#1A1A1A"/>
    <circle cx="45.7" cy="39.3" r="0.6649999999999999" fill="white" opacity="0.8"/>
  
  
</svg>