<svg xmlns="http://www.w3.org/2000/svg" viewBox="0 0 80 80">
  <defs>
    <filter id="gf0307" x="-60%" y="-60%" width="220%" height="220%">
      <feGaussianBlur stdDeviation="4" result="blur"/>
      <feMerge><feMergeNode in="blur"/><feMergeNode in="SourceGraphic"/></feMerge>
    </filter>
    <radialGradient id="bgg0307" cx="50%" cy="50%" r="50%">
      <stop offset="0%" stop-color="#F0C8D8" stop-opacity="0.7"/>
      <stop offset="100%" stop-color="#C8A0B0" stop-opacity="0.9"/>
    </radialGradient>
  </defs>
  <circle cx="40" cy="40" r="35.0" fill="none" stroke="#F0C8D880" stroke-width="1" stroke-dasharray="3,3" opacity="0.5"/><circle cx="40" cy="38" r="39.0" fill="none" stroke="#F0C8D880" stroke-width="1" stroke-dasharray="3,3" opacity="0.5"/>
  <circle cx="40" cy="40" r="40" fill="url(#bgg0307)" filter="url(#gf0307)"/>
  <ellipse cx="40" cy="44" rx="15" ry="14" fill="#C8A0B0"/>
    <ellipse cx="40" cy="44" rx="13" ry="12" fill="#F0C8D8" opacity="0.4"/>
    <ellipse cx="30" cy="21" rx="5" ry="10" fill="#C8A0B0" transform="rotate(-10,30,21)"/>
    <ellipse cx="50" cy="21" rx="5" ry="10" fill="#C8A0B0" transform="rotate(10,50,21)"/>
    <ellipse cx="30" cy="21" rx="3" ry="7" fill="#F0C8D8" opacity="0.5" transform="rotate(-10,30,21)"/>
    <ellipse cx="50" cy="21" rx="3" ry="7" fill="#F0C8D8" opacity="0.5" transform="rotate(10,50,21)"/>
    <ellipse cx="40" cy="55" rx="3" ry="2" fill="#C090A0"/>
    <circle cx="36" cy="42" r="2.6" fill="#1A1A1A"/>
    <circle cx="36.7" cy="41.3" r="0.9099999999999999" fill="white" opacity="0.8"/>
    <circle cx="44" cy="42" r="2.6" fill="#1A1A1A"/>
    <circle cx="44.7" cy="41.3" r="0.9099999999999999" fill="white" opacity="0.8"/>
  
  
</svg>