<svg xmlns="http://www.w3.org/2000/svg" viewBox="0 0 80 80">
  <defs>
    <filter id="gf0606" x="-60%" y="-60%" width="220%" height="220%">
      <feGaussianBlur stdDeviation="2" result="blur"/>
      <feMerge><feMergeNode in="blur"/><feMergeNode in="SourceGraphic"/></feMerge>
    </filter>
    <radialGradient id="bgg0606" cx="50%" cy="50%" r="50%">
      <stop offset="0%" stop-color="#C89868" stop-opacity="0.7"/>
      <stop offset="100%" stop-color="#A07040" stop-opacity="0.9"/>
    </radialGradient>
  </defs>
  <circle cx="40" cy="40" r="34.5" fill="none" stroke="#C8986880" stroke-width="1" stroke-dasharray="3,3" opacity="0.5"/>
  <circle cx="40" cy="40" r="40" fill="url(#bgg0606)" filter="url(#gf0606)"/>
  <ellipse cx="40" cy="43" rx="12" ry="13" fill="#A07040"/>
    <ellipse cx="40" cy="43" rx="10" ry="11" fill="#C89868" opacity="0.35"/>
    <path d="M34,34 Q31,20.5 36,17.5" stroke="#A07040" stroke-width="2" fill="none" stroke-linecap="round"/>
    <path d="M37,34 Q34,19.0 39,16.0" stroke="#A07040" stroke-width="2" fill="none" stroke-linecap="round"/>
    <path d="M40,34 Q37,17.5 42,14.5" stroke="#A07040" stroke-width="2" fill="none" stroke-linecap="round"/>
    <path d="M43,34 Q40,19.0 45,16.0" stroke="#A07040" stroke-width="2" fill="none" stroke-linecap="round"/>
    <path d="M46,34 Q43,20.5 48,17.5" stroke="#A07040" stroke-width="2" fill="none" stroke-linecap="round"/>
    <polygon points="32,36 26,20 36,34" fill="#A07040"/>
    <polygon points="48,36 54,20 44,34" fill="#A07040"/>
    <circle cx="35" cy="40" r="2.5" fill="#1A1A1A"/>
    <circle cx="35.7" cy="39.3" r="0.875" fill="white" opacity="0.8"/>
    <circle cx="45" cy="40" r="2.5" fill="#1A1A1A"/>
    <circle cx="45.7" cy="39.3" r="0.875" fill="white" opacity="0.8"/>
  
  
</svg>