<svg xmlns="http://www.w3.org/2000/svg" viewBox="0 0 80 80">
  <defs>
    <filter id="gf1012" x="-60%" y="-60%" width="220%" height="220%">
      <feGaussianBlur stdDeviation="6" result="blur"/>
      <feMerge><feMergeNode in="blur"/><feMergeNode in="SourceGraphic"/></feMerge>
    </filter>
    <radialGradient id="bgg1012" cx="50%" cy="50%" r="50%">
      <stop offset="0%" stop-color="#C89878" stop-opacity="0.7"/>
      <stop offset="100%" stop-color="#A07050" stop-opacity="0.9"/>
    </radialGradient>
  </defs>
  <circle cx="40" cy="40" r="37.5" fill="none" stroke="#C8987880" stroke-width="1" stroke-dasharray="3,3" opacity="0.5"/><circle cx="40" cy="38" r="41.5" fill="none" stroke="#C8987880" stroke-width="1" stroke-dasharray="3,3" opacity="0.5"/><circle cx="40" cy="36" r="45.5" fill="none" stroke="#C8987880" stroke-width="1" stroke-dasharray="3,3" opacity="0.5"/>
  <circle cx="40" cy="40" r="40" fill="url(#bgg1012)" filter="url(#gf1012)"/>
  <ellipse cx="40" cy="42" rx="17" ry="16" fill="#A07050"/>
    <ellipse cx="40" cy="42" rx="15" ry="14" fill="#C89878" opacity="0.35"/>
    <polygon points="27,33 23,13 33,31" fill="#A07050"/>
    <polygon points="53,33 57,13 47,31" fill="#A07050"/>
    <polygon points="28,31 25,15 32,31" fill="#C89878" opacity="0.6"/>
    <polygon points="52,31 55,15 48,31" fill="#C89878" opacity="0.6"/>
    <ellipse cx="40" cy="56" rx="4" ry="3" fill="#3A2010"/>
    <circle cx="38.8" cy="56" r="0.8" fill="#1A1A1A"/>
    <circle cx="41.2" cy="56" r="0.8" fill="#1A1A1A"/>
    <circle cx="36" cy="39" r="3.1" fill="#1A1A1A"/>
    <circle cx="36.7" cy="38.3" r="1.085" fill="white" opacity="0.8"/>
    <circle cx="44" cy="39" r="3.1" fill="#1A1A1A"/>
    <circle cx="44.7" cy="38.3" r="1.085" fill="white" opacity="0.8"/>
  <circle cx="20" cy="20" r="1.5" fill="#C89878C0" opacity="0.9"/><circle cx="60" cy="20" r="1.6" fill="#C89878C0" opacity="0.9"/><circle cx="20" cy="60" r="1.7" fill="#C89878C0" opacity="0.9"/><circle cx="60" cy="60" r="1.8" fill="#C89878C0" opacity="0.9"/><circle cx="40" cy="12" r="1.9" fill="#C89878C0" opacity="0.9"/><circle cx="12" cy="40" r="2.0" fill="#C89878C0" opacity="0.9"/><circle cx="68" cy="40" r="2.1" fill="#C89878C0" opacity="0.9"/><circle cx="10" cy="10" r="1.4" fill="#C89878C0" opacity="0.8"/><circle cx="70" cy="10" r="1.5" fill="#C89878C0" opacity="0.8"/><circle cx="10" cy="70" r="1.3" fill="#C89878C0" opacity="0.8"/><circle cx="70" cy="70" r="1.4" fill="#C89878C0" opacity="0.8"/><circle cx="40" cy="70" r="1.2" fill="#C89878C0" opacity="0.7"/>
  <text x="40" y="76" text-anchor="middle" font-size="6.5" fill="#C89878C0" font-weight="bold" font-family="sans-serif">Lv12</text>
</svg>