<svg xmlns="http://www.w3.org/2000/svg" viewBox="0 0 80 80">
  <defs>
    <filter id="gf1003" x="-60%" y="-60%" width="220%" height="220%">
      <feGaussianBlur stdDeviation="0" result="blur"/>
      <feMerge><feMergeNode in="blur"/><feMergeNode in="SourceGraphic"/></feMerge>
    </filter>
    <radialGradient id="bgg1003" cx="50%" cy="50%" r="50%">
      <stop offset="0%" stop-color="#C89878" stop-opacity="0.7"/>
      <stop offset="100%" stop-color="#A07050" stop-opacity="0.9"/>
    </radialGradient>
  </defs>
  
  <circle cx="40" cy="40" r="40" fill="url(#bgg1003)" filter="url(#gf1003)"/>
  <ellipse cx="40" cy="42" rx="10" ry="9" fill="#A07050"/>
    <ellipse cx="40" cy="42" rx="8" ry="7" fill="#C89878" opacity="0.35"/>
    <polygon points="27,40 23,20 33,38" fill="#A07050"/>
    <polygon points="53,40 57,20 47,38" fill="#A07050"/>
    <polygon points="28,38 25,22 32,38" fill="#C89878" opacity="0.6"/>
    <polygon points="52,38 55,22 48,38" fill="#C89878" opacity="0.6"/>
    <ellipse cx="40" cy="49" rx="4" ry="3" fill="#3A2010"/>
    <circle cx="38.8" cy="49" r="0.8" fill="#1A1A1A"/>
    <circle cx="41.2" cy="49" r="0.8" fill="#1A1A1A"/>
    <circle cx="36" cy="39" r="2.2" fill="#1A1A1A"/>
    <circle cx="36.7" cy="38.3" r="0.77" fill="white" opacity="0.8"/>
    <circle cx="44" cy="39" r="2.2" fill="#1A1A1A"/>
    <circle cx="44.7" cy="38.3" r="0.77" fill="white" opacity="0.8"/>
  
  
</svg>