<svg xmlns="http://www.w3.org/2000/svg" viewBox="0 0 80 80">
  <defs>
    <filter id="gf0214" x="-60%" y="-60%" width="220%" height="220%">
      <feGaussianBlur stdDeviation="8" result="blur"/>
      <feMerge><feMergeNode in="blur"/><feMergeNode in="SourceGraphic"/></feMerge>
    </filter>
    <radialGradient id="bgg0214" cx="50%" cy="50%" r="50%">
      <stop offset="0%" stop-color="#FC9E42" stop-opacity="0.7"/>
      <stop offset="100%" stop-color="#D4761A" stop-opacity="0.9"/>
    </radialGradient>
  </defs>
  <circle cx="40" cy="40" r="38.5" fill="none" stroke="#FC9E4280" stroke-width="1" stroke-dasharray="3,3" opacity="0.5"/><circle cx="40" cy="38" r="42.5" fill="none" stroke="#FC9E4280" stroke-width="1" stroke-dasharray="3,3" opacity="0.5"/><circle cx="40" cy="36" r="46.5" fill="none" stroke="#FC9E4280" stroke-width="1" stroke-dasharray="3,3" opacity="0.5"/><circle cx="40" cy="34" r="50.5" fill="none" stroke="#FC9E4280" stroke-width="1.5" stroke-dasharray="4,4" opacity="0.6"/>
  <circle cx="40" cy="40" r="40" fill="url(#bgg0214)" filter="url(#gf0214)"/>
  <ellipse cx="40" cy="42" rx="18" ry="19" fill="#D4761A"/>
    <ellipse cx="40" cy="42" rx="16" ry="17" fill="#FC9E42" opacity="0.35"/>
    <path d="M30,36 L50,36" stroke="#FC9E42" stroke-width="3.3" opacity="0.5" stroke-linecap="round"/>
    <path d="M30,40 L50,40" stroke="#FC9E42" stroke-width="3.3" opacity="0.5" stroke-linecap="round"/>
    <path d="M30,44 L50,44" stroke="#FC9E42" stroke-width="3.3" opacity="0.5" stroke-linecap="round"/>
    <polygon points="26,30 22,16 32,28" fill="#D4761A"/>
    <polygon points="54,30 58,16 48,28" fill="#D4761A"/>
    <polygon points="27,29 24,18 31,28" fill="#FC9E42" opacity="0.6"/>
    <polygon points="53,29 56,18 49,28" fill="#FC9E42" opacity="0.6"/>
    <circle cx="36" cy="40" r="3.3" fill="#1A1A1A"/>
    <circle cx="36.7" cy="39.3" r="1.1549999999999998" fill="white" opacity="0.8"/>
    <circle cx="44" cy="40" r="3.3" fill="#1A1A1A"/>
    <circle cx="44.7" cy="39.3" r="1.1549999999999998" fill="white" opacity="0.8"/>
  <circle cx="20" cy="20" r="1.5" fill="#FC9E42C0" opacity="0.9"/><circle cx="60" cy="20" r="1.6" fill="#FC9E42C0" opacity="0.9"/><circle cx="20" cy="60" r="1.7" fill="#FC9E42C0" opacity="0.9"/><circle cx="60" cy="60" r="1.8" fill="#FC9E42C0" opacity="0.9"/><circle cx="40" cy="12" r="1.9" fill="#FC9E42C0" opacity="0.9"/><circle cx="12" cy="40" r="2.0" fill="#FC9E42C0" opacity="0.9"/><circle cx="68" cy="40" r="2.1" fill="#FC9E42C0" opacity="0.9"/><circle cx="10" cy="10" r="1.4" fill="#FC9E42C0" opacity="0.8"/><circle cx="70" cy="10" r="1.5" fill="#FC9E42C0" opacity="0.8"/><circle cx="10" cy="70" r="1.3" fill="#FC9E42C0" opacity="0.8"/><circle cx="70" cy="70" r="1.4" fill="#FC9E42C0" opacity="0.8"/><circle cx="40" cy="70" r="1.2" fill="#FC9E42C0" opacity="0.7"/><circle cx="15" cy="35" r="1.1" fill="#FC9E42C0" opacity="0.7"/><circle cx="65" cy="35" r="1.2" fill="#FC9E42C0" opacity="0.7"/><circle cx="15" cy="50" r="1.0" fill="#FC9E42C0" opacity="0.6"/><circle cx="65" cy="50" r="1.1" fill="#FC9E42C0" opacity="0.6"/>
  <text x="40" y="76" text-anchor="middle" font-size="6.5" fill="#FC9E42C0" font-weight="bold" font-family="sans-serif">Lv14</text>
</svg>