<svg xmlns="http://www.w3.org/2000/svg" viewBox="0 0 80 80">
  <defs>
    <filter id="gf0602" x="-60%" y="-60%" width="220%" height="220%">
      <feGaussianBlur stdDeviation="0" result="blur"/>
      <feMerge><feMergeNode in="blur"/><feMergeNode in="SourceGraphic"/></feMerge>
    </filter>
    <radialGradient id="bgg0602" cx="50%" cy="50%" r="50%">
      <stop offset="0%" stop-color="#C89868" stop-opacity="0.7"/>
      <stop offset="100%" stop-color="#A07040" stop-opacity="0.9"/>
    </radialGradient>
  </defs>
  
  <circle cx="40" cy="40" r="40" fill="url(#bgg0602)" filter="url(#gf0602)"/>
  <ellipse cx="40" cy="43" rx="9" ry="10" fill="#A07040"/>
    <ellipse cx="40" cy="43" rx="7" ry="8" fill="#C89868" opacity="0.35"/>
    <path d="M34,37 Q31,25.5 36,22.5" stroke="#A07040" stroke-width="2" fill="none" stroke-linecap="round"/>
    <path d="M37,37 Q34,24.0 39,21.0" stroke="#A07040" stroke-width="2" fill="none" stroke-linecap="round"/>
    <path d="M40,37 Q37,22.5 42,19.5" stroke="#A07040" stroke-width="2" fill="none" stroke-linecap="round"/>
    <path d="M43,37 Q40,24.0 45,21.0" stroke="#A07040" stroke-width="2" fill="none" stroke-linecap="round"/>
    <path d="M46,37 Q43,25.5 48,22.5" stroke="#A07040" stroke-width="2" fill="none" stroke-linecap="round"/>
    <polygon points="32,39 26,23 36,37" fill="#A07040"/>
    <polygon points="48,39 54,23 44,37" fill="#A07040"/>
    <circle cx="35" cy="40" r="1.6" fill="#1A1A1A"/>
    <circle cx="35.7" cy="39.3" r="0.5599999999999999" fill="white" opacity="0.8"/>
    <circle cx="45" cy="40" r="1.6" fill="#1A1A1A"/>
    <circle cx="45.7" cy="39.3" r="0.5599999999999999" fill="white" opacity="0.8"/>
  
  
</svg>