<svg xmlns="http://www.w3.org/2000/svg" viewBox="0 0 80 80">
  <defs>
    <filter id="gf0704" x="-60%" y="-60%" width="220%" height="220%">
      <feGaussianBlur stdDeviation="2" result="blur"/>
      <feMerge><feMergeNode in="blur"/><feMergeNode in="SourceGraphic"/></feMerge>
    </filter>
    <radialGradient id="bgg0704" cx="50%" cy="50%" r="50%">
      <stop offset="0%" stop-color="#F8F0C8" stop-opacity="0.7"/>
      <stop offset="100%" stop-color="#D0C8A0" stop-opacity="0.9"/>
    </radialGradient>
  </defs>
  <circle cx="40" cy="40" r="33.5" fill="none" stroke="#F8F0C880" stroke-width="1" stroke-dasharray="3,3" opacity="0.5"/>
  <circle cx="40" cy="40" r="40" fill="url(#bgg0704)" filter="url(#gf0704)"/>
  <ellipse cx="40" cy="43" rx="12" ry="11" fill="#D0C8A0"/>
    <ellipse cx="40" cy="43" rx="10" ry="9" fill="#F8F0C8" opacity="0.4"/>
    <path d="M28,34 Q20,26 24,18 Q32,14 36,22" stroke="#D0C8A0" stroke-width="3" fill="none" stroke-linecap="round"/>
    <path d="M52,34 Q60,26 56,18 Q48,14 44,22" stroke="#D0C8A0" stroke-width="3" fill="none" stroke-linecap="round"/>
    <ellipse cx="30" cy="38" rx="3" ry="4" fill="#D0C8A0"/>
    <ellipse cx="50" cy="38" rx="3" ry="4" fill="#D0C8A0"/>
    <circle cx="36" cy="40" r="2.3" fill="#1A1A1A"/>
    <circle cx="36.7" cy="39.3" r="0.8049999999999999" fill="white" opacity="0.8"/>
    <circle cx="44" cy="40" r="2.3" fill="#1A1A1A"/>
    <circle cx="44.7" cy="39.3" r="0.8049999999999999" fill="white" opacity="0.8"/>
  
  
</svg>