<svg xmlns="http://www.w3.org/2000/svg" viewBox="0 0 80 80">
  <defs>
    <filter id="gf1004" x="-60%" y="-60%" width="220%" height="220%">
      <feGaussianBlur stdDeviation="2" result="blur"/>
      <feMerge><feMergeNode in="blur"/><feMergeNode in="SourceGraphic"/></feMerge>
    </filter>
    <radialGradient id="bgg1004" cx="50%" cy="50%" r="50%">
      <stop offset="0%" stop-color="#C89878" stop-opacity="0.7"/>
      <stop offset="100%" stop-color="#A07050" stop-opacity="0.9"/>
    </radialGradient>
  </defs>
  <circle cx="40" cy="40" r="33.5" fill="none" stroke="#C8987880" stroke-width="1" stroke-dasharray="3,3" opacity="0.5"/>
  <circle cx="40" cy="40" r="40" fill="url(#bgg1004)" filter="url(#gf1004)"/>
  <ellipse cx="40" cy="42" rx="12" ry="11" fill="#A07050"/>
    <ellipse cx="40" cy="42" rx="10" ry="9" fill="#C89878" opacity="0.35"/>
    <polygon points="27,38 23,18 33,36" fill="#A07050"/>
    <polygon points="53,38 57,18 47,36" fill="#A07050"/>
    <polygon points="28,36 25,20 32,36" fill="#C89878" opacity="0.6"/>
    <polygon points="52,36 55,20 48,36" fill="#C89878" opacity="0.6"/>
    <ellipse cx="40" cy="51" rx="4" ry="3" fill="#3A2010"/>
    <circle cx="38.8" cy="51" r="0.8" fill="#1A1A1A"/>
    <circle cx="41.2" cy="51" r="0.8" fill="#1A1A1A"/>
    <circle cx="36" cy="39" r="2.3" fill="#1A1A1A"/>
    <circle cx="36.7" cy="38.3" r="0.8049999999999999" fill="white" opacity="0.8"/>
    <circle cx="44" cy="39" r="2.3" fill="#1A1A1A"/>
    <circle cx="44.7" cy="38.3" r="0.8049999999999999" fill="white" opacity="0.8"/>
  
  
</svg>