<svg xmlns="http://www.w3.org/2000/svg" viewBox="0 0 80 80">
  <defs>
    <filter id="gf1007" x="-60%" y="-60%" width="220%" height="220%">
      <feGaussianBlur stdDeviation="4" result="blur"/>
      <feMerge><feMergeNode in="blur"/><feMergeNode in="SourceGraphic"/></feMerge>
    </filter>
    <radialGradient id="bgg1007" cx="50%" cy="50%" r="50%">
      <stop offset="0%" stop-color="#C89878" stop-opacity="0.7"/>
      <stop offset="100%" stop-color="#A07050" stop-opacity="0.9"/>
    </radialGradient>
  </defs>
  <circle cx="40" cy="40" r="35.0" fill="none" stroke="#C8987880" stroke-width="1" stroke-dasharray="3,3" opacity="0.5"/><circle cx="40" cy="38" r="39.0" fill="none" stroke="#C8987880" stroke-width="1" stroke-dasharray="3,3" opacity="0.5"/>
  <circle cx="40" cy="40" r="40" fill="url(#bgg1007)" filter="url(#gf1007)"/>
  <ellipse cx="40" cy="42" rx="15" ry="14" fill="#A07050"/>
    <ellipse cx="40" cy="42" rx="13" ry="12" fill="#C89878" opacity="0.35"/>
    <polygon points="27,35 23,15 33,33" fill="#A07050"/>
    <polygon points="53,35 57,15 47,33" fill="#A07050"/>
    <polygon points="28,33 25,17 32,33" fill="#C89878" opacity="0.6"/>
    <polygon points="52,33 55,17 48,33" fill="#C89878" opacity="0.6"/>
    <ellipse cx="40" cy="54" rx="4" ry="3" fill="#3A2010"/>
    <circle cx="38.8" cy="54" r="0.8" fill="#1A1A1A"/>
    <circle cx="41.2" cy="54" r="0.8" fill="#1A1A1A"/>
    <circle cx="36" cy="39" r="2.6" fill="#1A1A1A"/>
    <circle cx="36.7" cy="38.3" r="0.9099999999999999" fill="white" opacity="0.8"/>
    <circle cx="44" cy="39" r="2.6" fill="#1A1A1A"/>
    <circle cx="44.7" cy="38.3" r="0.9099999999999999" fill="white" opacity="0.8"/>
  
  
</svg>