<svg xmlns="http://www.w3.org/2000/svg" viewBox="0 0 80 80">
  <defs>
    <filter id="gf1113" x="-60%" y="-60%" width="220%" height="220%">
      <feGaussianBlur stdDeviation="8" result="blur"/>
      <feMerge><feMergeNode in="blur"/><feMergeNode in="SourceGraphic"/></feMerge>
    </filter>
    <radialGradient id="bgg1113" cx="50%" cy="50%" r="50%">
      <stop offset="0%" stop-color="#F8C8C8" stop-opacity="0.7"/>
      <stop offset="100%" stop-color="#D0A0A0" stop-opacity="0.9"/>
    </radialGradient>
  </defs>
  <circle cx="40" cy="40" r="38.0" fill="none" stroke="#F8C8C880" stroke-width="1" stroke-dasharray="3,3" opacity="0.5"/><circle cx="40" cy="38" r="42.0" fill="none" stroke="#F8C8C880" stroke-width="1" stroke-dasharray="3,3" opacity="0.5"/><circle cx="40" cy="36" r="46.0" fill="none" stroke="#F8C8C880" stroke-width="1" stroke-dasharray="3,3" opacity="0.5"/><circle cx="40" cy="34" r="50.0" fill="none" stroke="#F8C8C880" stroke-width="1.5" stroke-dasharray="4,4" opacity="0.6"/>
  <circle cx="40" cy="40" r="40" fill="url(#bgg1113)" filter="url(#gf1113)"/>
  <ellipse cx="40" cy="44" rx="19" ry="18" fill="#D0A0A0"/>
    <ellipse cx="40" cy="44" rx="17" ry="16" fill="#F8C8C8" opacity="0.4"/>
    <ellipse cx="28" cy="28" rx="6" ry="5" fill="#D0A0A0" transform="rotate(-20,28,28)"/>
    <ellipse cx="52" cy="28" rx="6" ry="5" fill="#D0A0A0" transform="rotate(20,52,28)"/>
    <ellipse cx="28" cy="28" rx="4" ry="3" fill="#F8C8C8" opacity="0.5" transform="rotate(-20,28,28)"/>
    <ellipse cx="52" cy="28" rx="4" ry="3" fill="#F8C8C8" opacity="0.5" transform="rotate(20,52,28)"/>
    <ellipse cx="40" cy="62" rx="8" ry="5" fill="#C08080"/>
    <ellipse cx="40" cy="62" rx="6" ry="3.5" fill="#B07070"/>
    <circle cx="37.5" cy="62" r="1.5" fill="#904050"/>
    <circle cx="42.5" cy="62" r="1.5" fill="#904050"/>
    <circle cx="35" cy="41" r="3.2" fill="#1A1A1A"/>
    <circle cx="35.7" cy="40.3" r="1.1199999999999999" fill="white" opacity="0.8"/>
    <circle cx="45" cy="41" r="3.2" fill="#1A1A1A"/>
    <circle cx="45.7" cy="40.3" r="1.1199999999999999" fill="white" opacity="0.8"/>
  <circle cx="20" cy="20" r="1.5" fill="#F8C8C8C0" opacity="0.9"/><circle cx="60" cy="20" r="1.6" fill="#F8C8C8C0" opacity="0.9"/><circle cx="20" cy="60" r="1.7" fill="#F8C8C8C0" opacity="0.9"/><circle cx="60" cy="60" r="1.8" fill="#F8C8C8C0" opacity="0.9"/><circle cx="40" cy="12" r="1.9" fill="#F8C8C8C0" opacity="0.9"/><circle cx="12" cy="40" r="2.0" fill="#F8C8C8C0" opacity="0.9"/><circle cx="68" cy="40" r="2.1" fill="#F8C8C8C0" opacity="0.9"/><circle cx="10" cy="10" r="1.4" fill="#F8C8C8C0" opacity="0.8"/><circle cx="70" cy="10" r="1.5" fill="#F8C8C8C0" opacity="0.8"/><circle cx="10" cy="70" r="1.3" fill="#F8C8C8C0" opacity="0.8"/><circle cx="70" cy="70" r="1.4" fill="#F8C8C8C0" opacity="0.8"/><circle cx="40" cy="70" r="1.2" fill="#F8C8C8C0" opacity="0.7"/><circle cx="15" cy="35" r="1.1" fill="#F8C8C8C0" opacity="0.7"/><circle cx="65" cy="35" r="1.2" fill="#F8C8C8C0" opacity="0.7"/>
  <text x="40" y="76" text-anchor="middle" font-size="6.5" fill="#F8C8C8C0" font-weight="bold" font-family="sans-serif">Lv13</text>
</svg>