<svg xmlns="http://www.w3.org/2000/svg" viewBox="0 0 80 80">
  <defs>
    <filter id="gf0309" x="-60%" y="-60%" width="220%" height="220%">
      <feGaussianBlur stdDeviation="4" result="blur"/>
      <feMerge><feMergeNode in="blur"/><feMergeNode in="SourceGraphic"/></feMerge>
    </filter>
    <radialGradient id="bgg0309" cx="50%" cy="50%" r="50%">
      <stop offset="0%" stop-color="#F0C8D8" stop-opacity="0.7"/>
      <stop offset="100%" stop-color="#C8A0B0" stop-opacity="0.9"/>
    </radialGradient>
  </defs>
  <circle cx="40" cy="40" r="36.0" fill="none" stroke="#F0C8D880" stroke-width="1" stroke-dasharray="3,3" opacity="0.5"/><circle cx="40" cy="38" r="40.0" fill="none" stroke="#F0C8D880" stroke-width="1" stroke-dasharray="3,3" opacity="0.5"/>
  <circle cx="40" cy="40" r="40" fill="url(#bgg0309)" filter="url(#gf0309)"/>
  <ellipse cx="40" cy="44" rx="14" ry="13" fill="#C8A0B0"/>
    <ellipse cx="40" cy="44" rx="12" ry="11" fill="#F0C8D8" opacity="0.4"/>
    <ellipse cx="30" cy="21" rx="5" ry="11" fill="#C8A0B0" transform="rotate(-10,30,21)"/>
    <ellipse cx="50" cy="21" rx="5" ry="11" fill="#C8A0B0" transform="rotate(10,50,21)"/>
    <ellipse cx="30" cy="21" rx="3" ry="8" fill="#F0C8D8" opacity="0.5" transform="rotate(-10,30,21)"/>
    <ellipse cx="50" cy="21" rx="3" ry="8" fill="#F0C8D8" opacity="0.5" transform="rotate(10,50,21)"/>
    <ellipse cx="40" cy="54" rx="3" ry="2" fill="#C090A0"/>
    <circle cx="36" cy="42" r="2.8" fill="#1A1A1A"/>
    <circle cx="36.7" cy="41.3" r="0.9799999999999999" fill="white" opacity="0.8"/>
    <circle cx="44" cy="42" r="2.8" fill="#1A1A1A"/>
    <circle cx="44.7" cy="41.3" r="0.9799999999999999" fill="white" opacity="0.8"/>
  <circle cx="20" cy="20" r="1.5" fill="#F0C8D8C0" opacity="0.9"/><circle cx="60" cy="20" r="1.6" fill="#F0C8D8C0" opacity="0.9"/><circle cx="20" cy="60" r="1.7" fill="#F0C8D8C0" opacity="0.9"/><circle cx="60" cy="60" r="1.8" fill="#F0C8D8C0" opacity="0.9"/><circle cx="40" cy="12" r="1.9" fill="#F0C8D8C0" opacity="0.9"/><circle cx="12" cy="40" r="2.0" fill="#F0C8D8C0" opacity="0.9"/>
  
</svg>