<svg xmlns="http://www.w3.org/2000/svg" viewBox="0 0 80 80">
  <defs>
    <filter id="gf0808" x="-60%" y="-60%" width="220%" height="220%">
      <feGaussianBlur stdDeviation="4" result="blur"/>
      <feMerge><feMergeNode in="blur"/><feMergeNode in="SourceGraphic"/></feMerge>
    </filter>
    <radialGradient id="bgg0808" cx="50%" cy="50%" r="50%">
      <stop offset="0%" stop-color="#D8A868" stop-opacity="0.7"/>
      <stop offset="100%" stop-color="#B08040" stop-opacity="0.9"/>
    </radialGradient>
  </defs>
  <circle cx="40" cy="40" r="35.5" fill="none" stroke="#D8A86880" stroke-width="1" stroke-dasharray="3,3" opacity="0.5"/><circle cx="40" cy="38" r="39.5" fill="none" stroke="#D8A86880" stroke-width="1" stroke-dasharray="3,3" opacity="0.5"/>
  <circle cx="40" cy="40" r="40" fill="url(#bgg0808)" filter="url(#gf0808)"/>
  <ellipse cx="40" cy="42" rx="14" ry="13" fill="#B08040"/>
    <ellipse cx="40" cy="42" rx="12" ry="11" fill="#D8A868" opacity="0.4"/>
    <circle cx="26" cy="34" r="6" fill="#B08040"/>
    <circle cx="26" cy="34" r="4" fill="#D8A868" opacity="0.5"/>
    <circle cx="54" cy="34" r="6" fill="#B08040"/>
    <circle cx="54" cy="34" r="4" fill="#D8A868" opacity="0.5"/>
    <ellipse cx="40" cy="46" rx="8" ry="6" fill="#D8A868" opacity="0.7"/>
    <ellipse cx="40" cy="45" rx="3" ry="2" fill="#8B5030"/>
    <circle cx="35" cy="40" r="2.7" fill="#1A1A1A"/>
    <circle cx="35.7" cy="39.3" r="0.945" fill="white" opacity="0.8"/>
    <circle cx="45" cy="40" r="2.7" fill="#1A1A1A"/>
    <circle cx="45.7" cy="39.3" r="0.945" fill="white" opacity="0.8"/>
  <circle cx="20" cy="20" r="1.5" fill="#D8A868C0" opacity="0.9"/><circle cx="60" cy="20" r="1.6" fill="#D8A868C0" opacity="0.9"/><circle cx="20" cy="60" r="1.7" fill="#D8A868C0" opacity="0.9"/><circle cx="60" cy="60" r="1.8" fill="#D8A868C0" opacity="0.9"/>
  
</svg>