<svg xmlns="http://www.w3.org/2000/svg" viewBox="0 0 80 80">
  <defs>
    <filter id="gf0011" x="-60%" y="-60%" width="220%" height="220%">
      <feGaussianBlur stdDeviation="6" result="blur"/>
      <feMerge><feMergeNode in="blur"/><feMergeNode in="SourceGraphic"/></feMerge>
    </filter>
    <radialGradient id="bgg0011" cx="50%" cy="50%" r="50%">
      <stop offset="0%" stop-color="#B39B7D" stop-opacity="0.7"/>
      <stop offset="100%" stop-color="#8B7355" stop-opacity="0.9"/>
    </radialGradient>
  </defs>
  <circle cx="40" cy="40" r="37.0" fill="none" stroke="#B39B7D80" stroke-width="1" stroke-dasharray="3,3" opacity="0.5"/><circle cx="40" cy="38" r="41.0" fill="none" stroke="#B39B7D80" stroke-width="1" stroke-dasharray="3,3" opacity="0.5"/><circle cx="40" cy="36" r="45.0" fill="none" stroke="#B39B7D80" stroke-width="1" stroke-dasharray="3,3" opacity="0.5"/>
  <circle cx="40" cy="40" r="40" fill="url(#bgg0011)" filter="url(#gf0011)"/>
  <ellipse cx="40" cy="42" rx="16" ry="15" fill="#8B7355"/>
    <ellipse cx="40" cy="42" rx="14" ry="13" fill="#B39B7D" opacity="0.35"/>
    <polygon points="26,40 22,26 32,36" fill="#8B7355"/>
    <polygon points="54,40 58,26 48,36" fill="#8B7355"/>
    <polygon points="27,39 25,29 31,36" fill="#B39B7D" opacity="0.5"/>
    <polygon points="53,39 55,29 49,36" fill="#B39B7D" opacity="0.5"/>
    <ellipse cx="40" cy="59" rx="3.0" ry="5" fill="#8B7355"/>
    <circle cx="40" cy="42" r="2.5" fill="#B39B7D" opacity="0.4"/>
    <circle cx="37" cy="41" r="3.0" fill="#1A1A1A"/>
    <circle cx="37.7" cy="40.3" r="1.0499999999999998" fill="white" opacity="0.8"/>
    <circle cx="43" cy="41" r="3.0" fill="#1A1A1A"/>
    <circle cx="43.7" cy="40.3" r="1.0499999999999998" fill="white" opacity="0.8"/>
  <circle cx="20" cy="20" r="1.5" fill="#B39B7DC0" opacity="0.9"/><circle cx="60" cy="20" r="1.6" fill="#B39B7DC0" opacity="0.9"/><circle cx="20" cy="60" r="1.7" fill="#B39B7DC0" opacity="0.9"/><circle cx="60" cy="60" r="1.8" fill="#B39B7DC0" opacity="0.9"/><circle cx="40" cy="12" r="1.9" fill="#B39B7DC0" opacity="0.9"/><circle cx="12" cy="40" r="2.0" fill="#B39B7DC0" opacity="0.9"/><circle cx="68" cy="40" r="2.1" fill="#B39B7DC0" opacity="0.9"/><circle cx="10" cy="10" r="1.4" fill="#B39B7DC0" opacity="0.8"/><circle cx="70" cy="10" r="1.5" fill="#B39B7DC0" opacity="0.8"/><circle cx="10" cy="70" r="1.3" fill="#B39B7DC0" opacity="0.8"/>
  <text x="40" y="76" text-anchor="middle" font-size="6.5" fill="#B39B7DC0" font-weight="bold" font-family="sans-serif">Lv11</text>
</svg>