<svg xmlns="http://www.w3.org/2000/svg" viewBox="0 0 80 80">
  <defs>
    <filter id="gf0314" x="-60%" y="-60%" width="220%" height="220%">
      <feGaussianBlur stdDeviation="8" result="blur"/>
      <feMerge><feMergeNode in="blur"/><feMergeNode in="SourceGraphic"/></feMerge>
    </filter>
    <radialGradient id="bgg0314" cx="50%" cy="50%" r="50%">
      <stop offset="0%" stop-color="#F0C8D8" stop-opacity="0.7"/>
      <stop offset="100%" stop-color="#C8A0B0" stop-opacity="0.9"/>
    </radialGradient>
  </defs>
  <circle cx="40" cy="40" r="38.5" fill="none" stroke="#F0C8D880" stroke-width="1" stroke-dasharray="3,3" opacity="0.5"/><circle cx="40" cy="38" r="42.5" fill="none" stroke="#F0C8D880" stroke-width="1" stroke-dasharray="3,3" opacity="0.5"/><circle cx="40" cy="36" r="46.5" fill="none" stroke="#F0C8D880" stroke-width="1" stroke-dasharray="3,3" opacity="0.5"/><circle cx="40" cy="34" r="50.5" fill="none" stroke="#F0C8D880" stroke-width="1.5" stroke-dasharray="4,4" opacity="0.6"/>
  <circle cx="40" cy="40" r="40" fill="url(#bgg0314)" filter="url(#gf0314)"/>
  <ellipse cx="40" cy="44" rx="19" ry="18" fill="#C8A0B0"/>
    <ellipse cx="40" cy="44" rx="17" ry="16" fill="#F0C8D8" opacity="0.4"/>
    <ellipse cx="30" cy="14" rx="5" ry="13" fill="#C8A0B0" transform="rotate(-10,30,14)"/>
    <ellipse cx="50" cy="14" rx="5" ry="13" fill="#C8A0B0" transform="rotate(10,50,14)"/>
    <ellipse cx="30" cy="14" rx="3" ry="10" fill="#F0C8D8" opacity="0.5" transform="rotate(-10,30,14)"/>
    <ellipse cx="50" cy="14" rx="3" ry="10" fill="#F0C8D8" opacity="0.5" transform="rotate(10,50,14)"/>
    <ellipse cx="40" cy="59" rx="3" ry="2" fill="#C090A0"/>
    <circle cx="36" cy="42" r="3.3000000000000003" fill="#1A1A1A"/>
    <circle cx="36.7" cy="41.3" r="1.155" fill="white" opacity="0.8"/>
    <circle cx="44" cy="42" r="3.3000000000000003" fill="#1A1A1A"/>
    <circle cx="44.7" cy="41.3" r="1.155" fill="white" opacity="0.8"/>
  <circle cx="20" cy="20" r="1.5" fill="#F0C8D8C0" opacity="0.9"/><circle cx="60" cy="20" r="1.6" fill="#F0C8D8C0" opacity="0.9"/><circle cx="20" cy="60" r="1.7" fill="#F0C8D8C0" opacity="0.9"/><circle cx="60" cy="60" r="1.8" fill="#F0C8D8C0" opacity="0.9"/><circle cx="40" cy="12" r="1.9" fill="#F0C8D8C0" opacity="0.9"/><circle cx="12" cy="40" r="2.0" fill="#F0C8D8C0" opacity="0.9"/><circle cx="68" cy="40" r="2.1" fill="#F0C8D8C0" opacity="0.9"/><circle cx="10" cy="10" r="1.4" fill="#F0C8D8C0" opacity="0.8"/><circle cx="70" cy="10" r="1.5" fill="#F0C8D8C0" opacity="0.8"/><circle cx="10" cy="70" r="1.3" fill="#F0C8D8C0" opacity="0.8"/><circle cx="70" cy="70" r="1.4" fill="#F0C8D8C0" opacity="0.8"/><circle cx="40" cy="70" r="1.2" fill="#F0C8D8C0" opacity="0.7"/><circle cx="15" cy="35" r="1.1" fill="#F0C8D8C0" opacity="0.7"/><circle cx="65" cy="35" r="1.2" fill="#F0C8D8C0" opacity="0.7"/><circle cx="15" cy="50" r="1.0" fill="#F0C8D8C0" opacity="0.6"/><circle cx="65" cy="50" r="1.1" fill="#F0C8D8C0" opacity="0.6"/>
  <text x="40" y="76" text-anchor="middle" font-size="6.5" fill="#F0C8D8C0" font-weight="bold" font-family="sans-serif">Lv14</text>
</svg>