<svg xmlns="http://www.w3.org/2000/svg" viewBox="0 0 80 80">
  <defs>
    <filter id="gf1014" x="-60%" y="-60%" width="220%" height="220%">
      <feGaussianBlur stdDeviation="8" result="blur"/>
      <feMerge><feMergeNode in="blur"/><feMergeNode in="SourceGraphic"/></feMerge>
    </filter>
    <radialGradient id="bgg1014" cx="50%" cy="50%" r="50%">
      <stop offset="0%" stop-color="#C89878" stop-opacity="0.7"/>
      <stop offset="100%" stop-color="#A07050" stop-opacity="0.9"/>
    </radialGradient>
  </defs>
  <circle cx="40" cy="40" r="38.5" fill="none" stroke="#C8987880" stroke-width="1" stroke-dasharray="3,3" opacity="0.5"/><circle cx="40" cy="38" r="42.5" fill="none" stroke="#C8987880" stroke-width="1" stroke-dasharray="3,3" opacity="0.5"/><circle cx="40" cy="36" r="46.5" fill="none" stroke="#C8987880" stroke-width="1" stroke-dasharray="3,3" opacity="0.5"/><circle cx="40" cy="34" r="50.5" fill="none" stroke="#C8987880" stroke-width="1.5" stroke-dasharray="4,4" opacity="0.6"/>
  <circle cx="40" cy="40" r="40" fill="url(#bgg1014)" filter="url(#gf1014)"/>
  <ellipse cx="40" cy="42" rx="19" ry="18" fill="#A07050"/>
    <ellipse cx="40" cy="42" rx="17" ry="16" fill="#C89878" opacity="0.35"/>
    <polygon points="27,31 23,11 33,29" fill="#A07050"/>
    <polygon points="53,31 57,11 47,29" fill="#A07050"/>
    <polygon points="28,29 25,13 32,29" fill="#C89878" opacity="0.6"/>
    <polygon points="52,29 55,13 48,29" fill="#C89878" opacity="0.6"/>
    <ellipse cx="40" cy="58" rx="4" ry="3" fill="#3A2010"/>
    <circle cx="38.8" cy="58" r="0.8" fill="#1A1A1A"/>
    <circle cx="41.2" cy="58" r="0.8" fill="#1A1A1A"/>
    <circle cx="36" cy="39" r="3.3000000000000003" fill="#1A1A1A"/>
    <circle cx="36.7" cy="38.3" r="1.155" fill="white" opacity="0.8"/>
    <circle cx="44" cy="39" r="3.3000000000000003" fill="#1A1A1A"/>
    <circle cx="44.7" cy="38.3" r="1.155" fill="white" opacity="0.8"/>
  <circle cx="20" cy="20" r="1.5" fill="#C89878C0" opacity="0.9"/><circle cx="60" cy="20" r="1.6" fill="#C89878C0" opacity="0.9"/><circle cx="20" cy="60" r="1.7" fill="#C89878C0" opacity="0.9"/><circle cx="60" cy="60" r="1.8" fill="#C89878C0" opacity="0.9"/><circle cx="40" cy="12" r="1.9" fill="#C89878C0" opacity="0.9"/><circle cx="12" cy="40" r="2.0" fill="#C89878C0" opacity="0.9"/><circle cx="68" cy="40" r="2.1" fill="#C89878C0" opacity="0.9"/><circle cx="10" cy="10" r="1.4" fill="#C89878C0" opacity="0.8"/><circle cx="70" cy="10" r="1.5" fill="#C89878C0" opacity="0.8"/><circle cx="10" cy="70" r="1.3" fill="#C89878C0" opacity="0.8"/><circle cx="70" cy="70" r="1.4" fill="#C89878C0" opacity="0.8"/><circle cx="40" cy="70" r="1.2" fill="#C89878C0" opacity="0.7"/><circle cx="15" cy="35" r="1.1" fill="#C89878C0" opacity="0.7"/><circle cx="65" cy="35" r="1.2" fill="#C89878C0" opacity="0.7"/><circle cx="15" cy="50" r="1.0" fill="#C89878C0" opacity="0.6"/><circle cx="65" cy="50" r="1.1" fill="#C89878C0" opacity="0.6"/>
  <text x="40" y="76" text-anchor="middle" font-size="6.5" fill="#C89878C0" font-weight="bold" font-family="sans-serif">Lv14</text>
</svg>