<svg xmlns="http://www.w3.org/2000/svg" viewBox="0 0 80 80">
  <defs>
    <filter id="gf0202" x="-60%" y="-60%" width="220%" height="220%">
      <feGaussianBlur stdDeviation="0" result="blur"/>
      <feMerge><feMergeNode in="blur"/><feMergeNode in="SourceGraphic"/></feMerge>
    </filter>
    <radialGradient id="bgg0202" cx="50%" cy="50%" r="50%">
      <stop offset="0%" stop-color="#FC9E42" stop-opacity="0.7"/>
      <stop offset="100%" stop-color="#D4761A" stop-opacity="0.9"/>
    </radialGradient>
  </defs>
  
  <circle cx="40" cy="40" r="40" fill="url(#bgg0202)" filter="url(#gf0202)"/>
  <ellipse cx="40" cy="42" rx="9" ry="10" fill="#D4761A"/>
    <ellipse cx="40" cy="42" rx="7" ry="8" fill="#FC9E42" opacity="0.35"/>
    <path d="M30,36 L50,36" stroke="#FC9E42" stroke-width="2.1" opacity="0.5" stroke-linecap="round"/>
    <path d="M30,40 L50,40" stroke="#FC9E42" stroke-width="2.1" opacity="0.5" stroke-linecap="round"/>
    <path d="M30,44 L50,44" stroke="#FC9E42" stroke-width="2.1" opacity="0.5" stroke-linecap="round"/>
    <polygon points="26,39 22,25 32,37" fill="#D4761A"/>
    <polygon points="54,39 58,25 48,37" fill="#D4761A"/>
    <polygon points="27,38 24,27 31,37" fill="#FC9E42" opacity="0.6"/>
    <polygon points="53,38 56,27 49,37" fill="#FC9E42" opacity="0.6"/>
    <circle cx="36" cy="40" r="1.6" fill="#1A1A1A"/>
    <circle cx="36.7" cy="39.3" r="0.5599999999999999" fill="white" opacity="0.8"/>
    <circle cx="44" cy="40" r="1.6" fill="#1A1A1A"/>
    <circle cx="44.7" cy="39.3" r="0.5599999999999999" fill="white" opacity="0.8"/>
  
  
</svg>