<svg xmlns="http://www.w3.org/2000/svg" viewBox="0 0 80 80">
  <defs>
    <filter id="gf1011" x="-60%" y="-60%" width="220%" height="220%">
      <feGaussianBlur stdDeviation="6" result="blur"/>
      <feMerge><feMergeNode in="blur"/><feMergeNode in="SourceGraphic"/></feMerge>
    </filter>
    <radialGradient id="bgg1011" cx="50%" cy="50%" r="50%">
      <stop offset="0%" stop-color="#C89878" stop-opacity="0.7"/>
      <stop offset="100%" stop-color="#A07050" stop-opacity="0.9"/>
    </radialGradient>
  </defs>
  <circle cx="40" cy="40" r="37.0" fill="none" stroke="#C8987880" stroke-width="1" stroke-dasharray="3,3" opacity="0.5"/><circle cx="40" cy="38" r="41.0" fill="none" stroke="#C8987880" stroke-width="1" stroke-dasharray="3,3" opacity="0.5"/><circle cx="40" cy="36" r="45.0" fill="none" stroke="#C8987880" stroke-width="1" stroke-dasharray="3,3" opacity="0.5"/>
  <circle cx="40" cy="40" r="40" fill="url(#bgg1011)" filter="url(#gf1011)"/>
  <ellipse cx="40" cy="42" rx="16" ry="15" fill="#A07050"/>
    <ellipse cx="40" cy="42" rx="14" ry="13" fill="#C89878" opacity="0.35"/>
    <polygon points="27,34 23,14 33,32" fill="#A07050"/>
    <polygon points="53,34 57,14 47,32" fill="#A07050"/>
    <polygon points="28,32 25,16 32,32" fill="#C89878" opacity="0.6"/>
    <polygon points="52,32 55,16 48,32" fill="#C89878" opacity="0.6"/>
    <ellipse cx="40" cy="55" rx="4" ry="3" fill="#3A2010"/>
    <circle cx="38.8" cy="55" r="0.8" fill="#1A1A1A"/>
    <circle cx="41.2" cy="55" r="0.8" fill="#1A1A1A"/>
    <circle cx="36" cy="39" r="3.0" fill="#1A1A1A"/>
    <circle cx="36.7" cy="38.3" r="1.0499999999999998" fill="white" opacity="0.8"/>
    <circle cx="44" cy="39" r="3.0" fill="#1A1A1A"/>
    <circle cx="44.7" cy="38.3" r="1.0499999999999998" fill="white" opacity="0.8"/>
  <circle cx="20" cy="20" r="1.5" fill="#C89878C0" opacity="0.9"/><circle cx="60" cy="20" r="1.6" fill="#C89878C0" opacity="0.9"/><circle cx="20" cy="60" r="1.7" fill="#C89878C0" opacity="0.9"/><circle cx="60" cy="60" r="1.8" fill="#C89878C0" opacity="0.9"/><circle cx="40" cy="12" r="1.9" fill="#C89878C0" opacity="0.9"/><circle cx="12" cy="40" r="2.0" fill="#C89878C0" opacity="0.9"/><circle cx="68" cy="40" r="2.1" fill="#C89878C0" opacity="0.9"/><circle cx="10" cy="10" r="1.4" fill="#C89878C0" opacity="0.8"/><circle cx="70" cy="10" r="1.5" fill="#C89878C0" opacity="0.8"/><circle cx="10" cy="70" r="1.3" fill="#C89878C0" opacity="0.8"/>
  <text x="40" y="76" text-anchor="middle" font-size="6.5" fill="#C89878C0" font-weight="bold" font-family="sans-serif">Lv11</text>
</svg>