<svg xmlns="http://www.w3.org/2000/svg" viewBox="0 0 80 80">
  <defs>
    <filter id="gf1005" x="-60%" y="-60%" width="220%" height="220%">
      <feGaussianBlur stdDeviation="2" result="blur"/>
      <feMerge><feMergeNode in="blur"/><feMergeNode in="SourceGraphic"/></feMerge>
    </filter>
    <radialGradient id="bgg1005" cx="50%" cy="50%" r="50%">
      <stop offset="0%" stop-color="#C89878" stop-opacity="0.7"/>
      <stop offset="100%" stop-color="#A07050" stop-opacity="0.9"/>
    </radialGradient>
  </defs>
  <circle cx="40" cy="40" r="34.0" fill="none" stroke="#C8987880" stroke-width="1" stroke-dasharray="3,3" opacity="0.5"/>
  <circle cx="40" cy="40" r="40" fill="url(#bgg1005)" filter="url(#gf1005)"/>
  <ellipse cx="40" cy="42" rx="13" ry="12" fill="#A07050"/>
    <ellipse cx="40" cy="42" rx="11" ry="10" fill="#C89878" opacity="0.35"/>
    <polygon points="27,37 23,17 33,35" fill="#A07050"/>
    <polygon points="53,37 57,17 47,35" fill="#A07050"/>
    <polygon points="28,35 25,19 32,35" fill="#C89878" opacity="0.6"/>
    <polygon points="52,35 55,19 48,35" fill="#C89878" opacity="0.6"/>
    <ellipse cx="40" cy="52" rx="4" ry="3" fill="#3A2010"/>
    <circle cx="38.8" cy="52" r="0.8" fill="#1A1A1A"/>
    <circle cx="41.2" cy="52" r="0.8" fill="#1A1A1A"/>
    <circle cx="36" cy="39" r="2.4000000000000004" fill="#1A1A1A"/>
    <circle cx="36.7" cy="38.3" r="0.8400000000000001" fill="white" opacity="0.8"/>
    <circle cx="44" cy="39" r="2.4000000000000004" fill="#1A1A1A"/>
    <circle cx="44.7" cy="38.3" r="0.8400000000000001" fill="white" opacity="0.8"/>
  
  
</svg>