<svg xmlns="http://www.w3.org/2000/svg" viewBox="0 0 80 80">
  <defs>
    <filter id="gf0201" x="-60%" y="-60%" width="220%" height="220%">
      <feGaussianBlur stdDeviation="0" result="blur"/>
      <feMerge><feMergeNode in="blur"/><feMergeNode in="SourceGraphic"/></feMerge>
    </filter>
    <radialGradient id="bgg0201" cx="50%" cy="50%" r="50%">
      <stop offset="0%" stop-color="#FC9E42" stop-opacity="0.7"/>
      <stop offset="100%" stop-color="#D4761A" stop-opacity="0.9"/>
    </radialGradient>
  </defs>
  
  <circle cx="40" cy="40" r="40" fill="url(#bgg0201)" filter="url(#gf0201)"/>
  <ellipse cx="40" cy="42" rx="10" ry="11" fill="#D4761A"/>
    <ellipse cx="40" cy="42" rx="8" ry="9" fill="#FC9E42" opacity="0.35"/>
    <path d="M30,36 L50,36" stroke="#FC9E42" stroke-width="2.0" opacity="0.5" stroke-linecap="round"/>
    <path d="M30,40 L50,40" stroke="#FC9E42" stroke-width="2.0" opacity="0.5" stroke-linecap="round"/>
    <path d="M30,44 L50,44" stroke="#FC9E42" stroke-width="2.0" opacity="0.5" stroke-linecap="round"/>
    <polygon points="26,38 22,24 32,36" fill="#D4761A"/>
    <polygon points="54,38 58,24 48,36" fill="#D4761A"/>
    <polygon points="27,37 24,26 31,36" fill="#FC9E42" opacity="0.6"/>
    <polygon points="53,37 56,26 49,36" fill="#FC9E42" opacity="0.6"/>
    <circle cx="36" cy="40" r="2.0" fill="#1A1A1A"/>
    <circle cx="36.7" cy="39.3" r="0.7" fill="white" opacity="0.8"/>
    <circle cx="44" cy="40" r="2.0" fill="#1A1A1A"/>
    <circle cx="44.7" cy="39.3" r="0.7" fill="white" opacity="0.8"/>
  
  
</svg>