<svg xmlns="http://www.w3.org/2000/svg" viewBox="0 0 80 80">
  <defs>
    <filter id="gf0402" x="-60%" y="-60%" width="220%" height="220%">
      <feGaussianBlur stdDeviation="0" result="blur"/>
      <feMerge><feMergeNode in="blur"/><feMergeNode in="SourceGraphic"/></feMerge>
    </filter>
    <radialGradient id="bgg0402" cx="50%" cy="50%" r="50%">
      <stop offset="0%" stop-color="#5288B8" stop-opacity="0.7"/>
      <stop offset="100%" stop-color="#2A6090" stop-opacity="0.9"/>
    </radialGradient>
  </defs>
  
  <circle cx="40" cy="40" r="40" fill="url(#bgg0402)" filter="url(#gf0402)"/>
  <path d="M30,50 Q20,42 32,32 Q40,24 48,32 Q60,42 50,50 Q45,56 40,54 Q35,56 30,50" fill="#2A6090"/>
    <ellipse cx="40" cy="42" rx="7" ry="6" fill="#5288B8" opacity="0.4"/>
    <path d="M33,37 Q28,21.4 34,17.4" stroke="#5288B8" stroke-width="2" fill="none" stroke-linecap="round"/>
    <path d="M47,37 Q52,21.4 46,17.4" stroke="#5288B8" stroke-width="2" fill="none" stroke-linecap="round"/>
    <path d="M36,42 Q18,37 12,42" stroke="#5288B8" stroke-width="1.2" fill="none" opacity="0.7"/>
    <path d="M44,42 Q62,37 68,42" stroke="#5288B8" stroke-width="1.2" fill="none" opacity="0.7"/>
    <circle cx="35" cy="39" r="2.1" fill="#1A1A1A"/>
    <circle cx="35.7" cy="38.3" r="0.735" fill="white" opacity="0.8"/>
    <circle cx="45" cy="39" r="2.1" fill="#1A1A1A"/>
    <circle cx="45.7" cy="38.3" r="0.735" fill="white" opacity="0.8"/>
    <path d="M40,54 Q35,62 40,68" stroke="#2A6090" stroke-width="2.1" fill="none" stroke-linecap="round"/>
  
  
</svg>