<svg xmlns="http://www.w3.org/2000/svg" viewBox="0 0 80 80">
  <defs>
    <filter id="gf0615" x="-60%" y="-60%" width="220%" height="220%">
      <feGaussianBlur stdDeviation="8" result="blur"/>
      <feMerge><feMergeNode in="blur"/><feMergeNode in="SourceGraphic"/></feMerge>
    </filter>
    <radialGradient id="bgg0615" cx="50%" cy="50%" r="50%">
      <stop offset="0%" stop-color="#C89868" stop-opacity="0.7"/>
      <stop offset="100%" stop-color="#A07040" stop-opacity="0.9"/>
    </radialGradient>
  </defs>
  <circle cx="40" cy="40" r="39.0" fill="none" stroke="#C8986880" stroke-width="1" stroke-dasharray="3,3" opacity="0.5"/><circle cx="40" cy="38" r="43.0" fill="none" stroke="#C8986880" stroke-width="1" stroke-dasharray="3,3" opacity="0.5"/><circle cx="40" cy="36" r="47.0" fill="none" stroke="#C8986880" stroke-width="1" stroke-dasharray="3,3" opacity="0.5"/><circle cx="40" cy="34" r="51.0" fill="none" stroke="#C8986880" stroke-width="1.5" stroke-dasharray="4,4" opacity="0.6"/>
  <circle cx="40" cy="40" r="40" fill="url(#bgg0615)" filter="url(#gf0615)"/>
  <ellipse cx="40" cy="43" rx="19" ry="20" fill="#A07040"/>
    <ellipse cx="40" cy="43" rx="17" ry="18" fill="#C89868" opacity="0.35"/>
    <path d="M34,27 Q31,9.0 36,6.0" stroke="#A07040" stroke-width="2" fill="none" stroke-linecap="round"/>
    <path d="M37,27 Q34,7.5 39,4.5" stroke="#A07040" stroke-width="2" fill="none" stroke-linecap="round"/>
    <path d="M40,27 Q37,6.0 42,3.0" stroke="#A07040" stroke-width="2" fill="none" stroke-linecap="round"/>
    <path d="M43,27 Q40,7.5 45,4.5" stroke="#A07040" stroke-width="2" fill="none" stroke-linecap="round"/>
    <path d="M46,27 Q43,9.0 48,6.0" stroke="#A07040" stroke-width="2" fill="none" stroke-linecap="round"/>
    <polygon points="32,29 26,13 36,27" fill="#A07040"/>
    <polygon points="48,29 54,13 44,27" fill="#A07040"/>
    <circle cx="35" cy="40" r="3.4000000000000004" fill="#1A1A1A"/>
    <circle cx="35.7" cy="39.3" r="1.19" fill="white" opacity="0.8"/>
    <circle cx="45" cy="40" r="3.4000000000000004" fill="#1A1A1A"/>
    <circle cx="45.7" cy="39.3" r="1.19" fill="white" opacity="0.8"/>
  <circle cx="20" cy="20" r="1.5" fill="#C89868C0" opacity="0.9"/><circle cx="60" cy="20" r="1.6" fill="#C89868C0" opacity="0.9"/><circle cx="20" cy="60" r="1.7" fill="#C89868C0" opacity="0.9"/><circle cx="60" cy="60" r="1.8" fill="#C89868C0" opacity="0.9"/><circle cx="40" cy="12" r="1.9" fill="#C89868C0" opacity="0.9"/><circle cx="12" cy="40" r="2.0" fill="#C89868C0" opacity="0.9"/><circle cx="68" cy="40" r="2.1" fill="#C89868C0" opacity="0.9"/><circle cx="10" cy="10" r="1.4" fill="#C89868C0" opacity="0.8"/><circle cx="70" cy="10" r="1.5" fill="#C89868C0" opacity="0.8"/><circle cx="10" cy="70" r="1.3" fill="#C89868C0" opacity="0.8"/><circle cx="70" cy="70" r="1.4" fill="#C89868C0" opacity="0.8"/><circle cx="40" cy="70" r="1.2" fill="#C89868C0" opacity="0.7"/><circle cx="15" cy="35" r="1.1" fill="#C89868C0" opacity="0.7"/><circle cx="65" cy="35" r="1.2" fill="#C89868C0" opacity="0.7"/><circle cx="15" cy="50" r="1.0" fill="#C89868C0" opacity="0.6"/><circle cx="65" cy="50" r="1.1" fill="#C89868C0" opacity="0.6"/>
  <text x="40" y="76" text-anchor="middle" font-size="6.5" fill="#C89868C0" font-weight="bold" font-family="sans-serif">Lv15</text>
</svg>