<svg xmlns="http://www.w3.org/2000/svg" viewBox="0 0 80 80">
  <defs>
    <filter id="gf0003" x="-60%" y="-60%" width="220%" height="220%">
      <feGaussianBlur stdDeviation="0" result="blur"/>
      <feMerge><feMergeNode in="blur"/><feMergeNode in="SourceGraphic"/></feMerge>
    </filter>
    <radialGradient id="bgg0003" cx="50%" cy="50%" r="50%">
      <stop offset="0%" stop-color="#B39B7D" stop-opacity="0.7"/>
      <stop offset="100%" stop-color="#8B7355" stop-opacity="0.9"/>
    </radialGradient>
  </defs>
  
  <circle cx="40" cy="40" r="40" fill="url(#bgg0003)" filter="url(#gf0003)"/>
  <ellipse cx="40" cy="42" rx="11" ry="10" fill="#8B7355"/>
    <ellipse cx="40" cy="42" rx="9" ry="8" fill="#B39B7D" opacity="0.35"/>
    <polygon points="26,40 22,26 32,36" fill="#8B7355"/>
    <polygon points="54,40 58,26 48,36" fill="#8B7355"/>
    <polygon points="27,39 25,29 31,36" fill="#B39B7D" opacity="0.5"/>
    <polygon points="53,39 55,29 49,36" fill="#B39B7D" opacity="0.5"/>
    <ellipse cx="40" cy="54" rx="2.2" ry="5" fill="#8B7355"/>
    <circle cx="40" cy="42" r="1.7000000000000002" fill="#B39B7D" opacity="0.4"/>
    <circle cx="37" cy="41" r="1.9" fill="#1A1A1A"/>
    <circle cx="37.7" cy="40.3" r="0.6649999999999999" fill="white" opacity="0.8"/>
    <circle cx="43" cy="41" r="1.9" fill="#1A1A1A"/>
    <circle cx="43.7" cy="40.3" r="0.6649999999999999" fill="white" opacity="0.8"/>
  
  
</svg>