<svg xmlns="http://www.w3.org/2000/svg" viewBox="0 0 80 80">
  <defs>
    <filter id="gf0608" x="-60%" y="-60%" width="220%" height="220%">
      <feGaussianBlur stdDeviation="4" result="blur"/>
      <feMerge><feMergeNode in="blur"/><feMergeNode in="SourceGraphic"/></feMerge>
    </filter>
    <radialGradient id="bgg0608" cx="50%" cy="50%" r="50%">
      <stop offset="0%" stop-color="#C89868" stop-opacity="0.7"/>
      <stop offset="100%" stop-color="#A07040" stop-opacity="0.9"/>
    </radialGradient>
  </defs>
  <circle cx="40" cy="40" r="35.5" fill="none" stroke="#C8986880" stroke-width="1" stroke-dasharray="3,3" opacity="0.5"/><circle cx="40" cy="38" r="39.5" fill="none" stroke="#C8986880" stroke-width="1" stroke-dasharray="3,3" opacity="0.5"/>
  <circle cx="40" cy="40" r="40" fill="url(#bgg0608)" filter="url(#gf0608)"/>
  <ellipse cx="40" cy="43" rx="15" ry="16" fill="#A07040"/>
    <ellipse cx="40" cy="43" rx="13" ry="14" fill="#C89868" opacity="0.35"/>
    <path d="M34,31 Q31,16.5 36,13.5" stroke="#A07040" stroke-width="2" fill="none" stroke-linecap="round"/>
    <path d="M37,31 Q34,15.0 39,12.0" stroke="#A07040" stroke-width="2" fill="none" stroke-linecap="round"/>
    <path d="M40,31 Q37,13.5 42,10.5" stroke="#A07040" stroke-width="2" fill="none" stroke-linecap="round"/>
    <path d="M43,31 Q40,15.0 45,12.0" stroke="#A07040" stroke-width="2" fill="none" stroke-linecap="round"/>
    <path d="M46,31 Q43,16.5 48,13.5" stroke="#A07040" stroke-width="2" fill="none" stroke-linecap="round"/>
    <polygon points="32,33 26,17 36,31" fill="#A07040"/>
    <polygon points="48,33 54,17 44,31" fill="#A07040"/>
    <circle cx="35" cy="40" r="2.7" fill="#1A1A1A"/>
    <circle cx="35.7" cy="39.3" r="0.945" fill="white" opacity="0.8"/>
    <circle cx="45" cy="40" r="2.7" fill="#1A1A1A"/>
    <circle cx="45.7" cy="39.3" r="0.945" fill="white" opacity="0.8"/>
  <circle cx="20" cy="20" r="1.5" fill="#C89868C0" opacity="0.9"/><circle cx="60" cy="20" r="1.6" fill="#C89868C0" opacity="0.9"/><circle cx="20" cy="60" r="1.7" fill="#C89868C0" opacity="0.9"/><circle cx="60" cy="60" r="1.8" fill="#C89868C0" opacity="0.9"/>
  
</svg>