<svg xmlns="http://www.w3.org/2000/svg" viewBox="0 0 80 80">
  <defs>
    <filter id="gf0911" x="-60%" y="-60%" width="220%" height="220%">
      <feGaussianBlur stdDeviation="6" result="blur"/>
      <feMerge><feMergeNode in="blur"/><feMergeNode in="SourceGraphic"/></feMerge>
    </filter>
    <radialGradient id="bgg0911" cx="50%" cy="50%" r="50%">
      <stop offset="0%" stop-color="#FFC848" stop-opacity="0.7"/>
      <stop offset="100%" stop-color="#E0A020" stop-opacity="0.9"/>
    </radialGradient>
  </defs>
  <circle cx="40" cy="40" r="37.0" fill="none" stroke="#FFC84880" stroke-width="1" stroke-dasharray="3,3" opacity="0.5"/><circle cx="40" cy="38" r="41.0" fill="none" stroke="#FFC84880" stroke-width="1" stroke-dasharray="3,3" opacity="0.5"/><circle cx="40" cy="36" r="45.0" fill="none" stroke="#FFC84880" stroke-width="1" stroke-dasharray="3,3" opacity="0.5"/>
  <circle cx="40" cy="40" r="40" fill="url(#bgg0911)" filter="url(#gf0911)"/>
  <ellipse cx="40" cy="46" rx="15" ry="16" fill="#E0A020"/>
    <ellipse cx="40" cy="46" rx="13" ry="14" fill="#FFC848" opacity="0.4"/>
    <polygon points="40,12.0 35,26 45,26" fill="#E05030" opacity="0.9"/>
    <polygon points="37,16.0 33,10.0 40,18.0" fill="#E05030" opacity="0.8"/>
    <polygon points="43,16.0 47,10.0 40,18.0" fill="#E05030" opacity="0.8"/>
    <polygon points="40,62 36,68 44,68" fill="#D07020"/>
    <path d="M34,46 Q24,42 26,52" stroke="#E0A020" stroke-width="3" fill="none" stroke-linecap="round"/>
    <path d="M46,46 Q56,42 54,52" stroke="#E0A020" stroke-width="3" fill="none" stroke-linecap="round"/>
    <circle cx="36" cy="42" r="3.0" fill="#1A1A1A"/>
    <circle cx="36.7" cy="41.3" r="1.0499999999999998" fill="white" opacity="0.8"/>
    <circle cx="44" cy="42" r="3.0" fill="#1A1A1A"/>
    <circle cx="44.7" cy="41.3" r="1.0499999999999998" fill="white" opacity="0.8"/>
  <circle cx="20" cy="20" r="1.5" fill="#FFC848C0" opacity="0.9"/><circle cx="60" cy="20" r="1.6" fill="#FFC848C0" opacity="0.9"/><circle cx="20" cy="60" r="1.7" fill="#FFC848C0" opacity="0.9"/><circle cx="60" cy="60" r="1.8" fill="#FFC848C0" opacity="0.9"/><circle cx="40" cy="12" r="1.9" fill="#FFC848C0" opacity="0.9"/><circle cx="12" cy="40" r="2.0" fill="#FFC848C0" opacity="0.9"/><circle cx="68" cy="40" r="2.1" fill="#FFC848C0" opacity="0.9"/><circle cx="10" cy="10" r="1.4" fill="#FFC848C0" opacity="0.8"/><circle cx="70" cy="10" r="1.5" fill="#FFC848C0" opacity="0.8"/><circle cx="10" cy="70" r="1.3" fill="#FFC848C0" opacity="0.8"/>
  <text x="40" y="76" text-anchor="middle" font-size="6.5" fill="#FFC848C0" font-weight="bold" font-family="sans-serif">Lv11</text>
</svg>