<svg xmlns="http://www.w3.org/2000/svg" viewBox="0 0 80 80">
  <defs>
    <filter id="gf0710" x="-60%" y="-60%" width="220%" height="220%">
      <feGaussianBlur stdDeviation="6" result="blur"/>
      <feMerge><feMergeNode in="blur"/><feMergeNode in="SourceGraphic"/></feMerge>
    </filter>
    <radialGradient id="bgg0710" cx="50%" cy="50%" r="50%">
      <stop offset="0%" stop-color="#F8F0C8" stop-opacity="0.7"/>
      <stop offset="100%" stop-color="#D0C8A0" stop-opacity="0.9"/>
    </radialGradient>
  </defs>
  <circle cx="40" cy="40" r="36.5" fill="none" stroke="#F8F0C880" stroke-width="1" stroke-dasharray="3,3" opacity="0.5"/><circle cx="40" cy="38" r="40.5" fill="none" stroke="#F8F0C880" stroke-width="1" stroke-dasharray="3,3" opacity="0.5"/><circle cx="40" cy="36" r="44.5" fill="none" stroke="#F8F0C880" stroke-width="1" stroke-dasharray="3,3" opacity="0.5"/>
  <circle cx="40" cy="40" r="40" fill="url(#bgg0710)" filter="url(#gf0710)"/>
  <ellipse cx="40" cy="43" rx="16" ry="15" fill="#D0C8A0"/>
    <ellipse cx="40" cy="43" rx="14" ry="13" fill="#F8F0C8" opacity="0.4"/>
    <path d="M28,30 Q20,22 24,14 Q32,10 36,18" stroke="#D0C8A0" stroke-width="5" fill="none" stroke-linecap="round"/>
    <path d="M52,30 Q60,22 56,14 Q48,10 44,18" stroke="#D0C8A0" stroke-width="5" fill="none" stroke-linecap="round"/>
    <ellipse cx="30" cy="34" rx="3" ry="4" fill="#D0C8A0"/>
    <ellipse cx="50" cy="34" rx="3" ry="4" fill="#D0C8A0"/>
    <circle cx="36" cy="40" r="2.9" fill="#1A1A1A"/>
    <circle cx="36.7" cy="39.3" r="1.015" fill="white" opacity="0.8"/>
    <circle cx="44" cy="40" r="2.9" fill="#1A1A1A"/>
    <circle cx="44.7" cy="39.3" r="1.015" fill="white" opacity="0.8"/>
  <circle cx="20" cy="20" r="1.5" fill="#F8F0C8C0" opacity="0.9"/><circle cx="60" cy="20" r="1.6" fill="#F8F0C8C0" opacity="0.9"/><circle cx="20" cy="60" r="1.7" fill="#F8F0C8C0" opacity="0.9"/><circle cx="60" cy="60" r="1.8" fill="#F8F0C8C0" opacity="0.9"/><circle cx="40" cy="12" r="1.9" fill="#F8F0C8C0" opacity="0.9"/><circle cx="12" cy="40" r="2.0" fill="#F8F0C8C0" opacity="0.9"/><circle cx="68" cy="40" r="2.1" fill="#F8F0C8C0" opacity="0.9"/><circle cx="10" cy="10" r="1.4" fill="#F8F0C8C0" opacity="0.8"/>
  <text x="40" y="76" text-anchor="middle" font-size="6.5" fill="#F8F0C8C0" font-weight="bold" font-family="sans-serif">Lv10</text>
</svg>