<svg xmlns="http://www.w3.org/2000/svg" viewBox="0 0 80 80">
  <defs>
    <filter id="gf0607" x="-60%" y="-60%" width="220%" height="220%">
      <feGaussianBlur stdDeviation="4" result="blur"/>
      <feMerge><feMergeNode in="blur"/><feMergeNode in="SourceGraphic"/></feMerge>
    </filter>
    <radialGradient id="bgg0607" cx="50%" cy="50%" r="50%">
      <stop offset="0%" stop-color="#C89868" stop-opacity="0.7"/>
      <stop offset="100%" stop-color="#A07040" stop-opacity="0.9"/>
    </radialGradient>
  </defs>
  <circle cx="40" cy="40" r="35.0" fill="none" stroke="#C8986880" stroke-width="1" stroke-dasharray="3,3" opacity="0.5"/><circle cx="40" cy="38" r="39.0" fill="none" stroke="#C8986880" stroke-width="1" stroke-dasharray="3,3" opacity="0.5"/>
  <circle cx="40" cy="40" r="40" fill="url(#bgg0607)" filter="url(#gf0607)"/>
  <ellipse cx="40" cy="43" rx="15" ry="16" fill="#A07040"/>
    <ellipse cx="40" cy="43" rx="13" ry="14" fill="#C89868" opacity="0.35"/>
    <path d="M34,31 Q31,17.0 36,14.0" stroke="#A07040" stroke-width="2" fill="none" stroke-linecap="round"/>
    <path d="M37,31 Q34,15.5 39,12.5" stroke="#A07040" stroke-width="2" fill="none" stroke-linecap="round"/>
    <path d="M40,31 Q37,14.0 42,11.0" stroke="#A07040" stroke-width="2" fill="none" stroke-linecap="round"/>
    <path d="M43,31 Q40,15.5 45,12.5" stroke="#A07040" stroke-width="2" fill="none" stroke-linecap="round"/>
    <path d="M46,31 Q43,17.0 48,14.0" stroke="#A07040" stroke-width="2" fill="none" stroke-linecap="round"/>
    <polygon points="32,33 26,17 36,31" fill="#A07040"/>
    <polygon points="48,33 54,17 44,31" fill="#A07040"/>
    <circle cx="35" cy="40" r="2.6" fill="#1A1A1A"/>
    <circle cx="35.7" cy="39.3" r="0.9099999999999999" fill="white" opacity="0.8"/>
    <circle cx="45" cy="40" r="2.6" fill="#1A1A1A"/>
    <circle cx="45.7" cy="39.3" r="0.9099999999999999" fill="white" opacity="0.8"/>
  
  
</svg>