<svg xmlns="http://www.w3.org/2000/svg" viewBox="0 0 80 80">
  <defs>
    <filter id="gf0610" x="-60%" y="-60%" width="220%" height="220%">
      <feGaussianBlur stdDeviation="6" result="blur"/>
      <feMerge><feMergeNode in="blur"/><feMergeNode in="SourceGraphic"/></feMerge>
    </filter>
    <radialGradient id="bgg0610" cx="50%" cy="50%" r="50%">
      <stop offset="0%" stop-color="#C89868" stop-opacity="0.7"/>
      <stop offset="100%" stop-color="#A07040" stop-opacity="0.9"/>
    </radialGradient>
  </defs>
  <circle cx="40" cy="40" r="36.5" fill="none" stroke="#C8986880" stroke-width="1" stroke-dasharray="3,3" opacity="0.5"/><circle cx="40" cy="38" r="40.5" fill="none" stroke="#C8986880" stroke-width="1" stroke-dasharray="3,3" opacity="0.5"/><circle cx="40" cy="36" r="44.5" fill="none" stroke="#C8986880" stroke-width="1" stroke-dasharray="3,3" opacity="0.5"/>
  <circle cx="40" cy="40" r="40" fill="url(#bgg0610)" filter="url(#gf0610)"/>
  <ellipse cx="40" cy="43" rx="16" ry="17" fill="#A07040"/>
    <ellipse cx="40" cy="43" rx="14" ry="15" fill="#C89868" opacity="0.35"/>
    <path d="M34,30 Q31,14.5 36,11.5" stroke="#A07040" stroke-width="2" fill="none" stroke-linecap="round"/>
    <path d="M37,30 Q34,13.0 39,10.0" stroke="#A07040" stroke-width="2" fill="none" stroke-linecap="round"/>
    <path d="M40,30 Q37,11.5 42,8.5" stroke="#A07040" stroke-width="2" fill="none" stroke-linecap="round"/>
    <path d="M43,30 Q40,13.0 45,10.0" stroke="#A07040" stroke-width="2" fill="none" stroke-linecap="round"/>
    <path d="M46,30 Q43,14.5 48,11.5" stroke="#A07040" stroke-width="2" fill="none" stroke-linecap="round"/>
    <polygon points="32,32 26,16 36,30" fill="#A07040"/>
    <polygon points="48,32 54,16 44,30" fill="#A07040"/>
    <circle cx="35" cy="40" r="2.9" fill="#1A1A1A"/>
    <circle cx="35.7" cy="39.3" r="1.015" fill="white" opacity="0.8"/>
    <circle cx="45" cy="40" r="2.9" fill="#1A1A1A"/>
    <circle cx="45.7" cy="39.3" r="1.015" fill="white" opacity="0.8"/>
  <circle cx="20" cy="20" r="1.5" fill="#C89868C0" opacity="0.9"/><circle cx="60" cy="20" r="1.6" fill="#C89868C0" opacity="0.9"/><circle cx="20" cy="60" r="1.7" fill="#C89868C0" opacity="0.9"/><circle cx="60" cy="60" r="1.8" fill="#C89868C0" opacity="0.9"/><circle cx="40" cy="12" r="1.9" fill="#C89868C0" opacity="0.9"/><circle cx="12" cy="40" r="2.0" fill="#C89868C0" opacity="0.9"/><circle cx="68" cy="40" r="2.1" fill="#C89868C0" opacity="0.9"/><circle cx="10" cy="10" r="1.4" fill="#C89868C0" opacity="0.8"/>
  <text x="40" y="76" text-anchor="middle" font-size="6.5" fill="#C89868C0" font-weight="bold" font-family="sans-serif">Lv10</text>
</svg>