<svg xmlns="http://www.w3.org/2000/svg" viewBox="0 0 80 80">
  <defs>
    <filter id="gf0509" x="-60%" y="-60%" width="220%" height="220%">
      <feGaussianBlur stdDeviation="4" result="blur"/>
      <feMerge><feMergeNode in="blur"/><feMergeNode in="SourceGraphic"/></feMerge>
    </filter>
    <radialGradient id="bgg0509" cx="50%" cy="50%" r="50%">
      <stop offset="0%" stop-color="#62A262" stop-opacity="0.7"/>
      <stop offset="100%" stop-color="#3A7A3A" stop-opacity="0.9"/>
    </radialGradient>
  </defs>
  <circle cx="40" cy="40" r="36.0" fill="none" stroke="#62A26280" stroke-width="1" stroke-dasharray="3,3" opacity="0.5"/><circle cx="40" cy="38" r="40.0" fill="none" stroke="#62A26280" stroke-width="1" stroke-dasharray="3,3" opacity="0.5"/>
  <circle cx="40" cy="40" r="40" fill="url(#bgg0509)" filter="url(#gf0509)"/>
  <ellipse cx="40" cy="42" rx="15" ry="16" fill="#3A7A3A"/>
    <ellipse cx="40" cy="42" rx="13" ry="14" fill="#62A262" opacity="0.35"/>
    <path d="M32,38 L48,38" stroke="#62A262" stroke-width="1.2" opacity="0.5" stroke-linecap="round"/>
    <path d="M32,42 L48,42" stroke="#62A262" stroke-width="1.2" opacity="0.5" stroke-linecap="round"/>
    <path d="M32,46 L48,46" stroke="#62A262" stroke-width="1.2" opacity="0.5" stroke-linecap="round"/>
    <path d="M40,58 Q48,69.0 44,74.0" stroke="#3A7A3A" stroke-width="2.3" fill="none" stroke-linecap="round"/>
    <circle cx="36" cy="40" r="2.8" fill="#1A1A1A"/>
    <circle cx="36.7" cy="39.3" r="0.9799999999999999" fill="white" opacity="0.8"/>
    <ellipse cx="36.7" cy="40" rx="0.7" ry="1.4" fill="#1A1A1A" opacity="0.6"/>
    <circle cx="44" cy="40" r="2.8" fill="#1A1A1A"/>
    <circle cx="44.7" cy="39.3" r="0.9799999999999999" fill="white" opacity="0.8"/>
    <ellipse cx="44.7" cy="40" rx="0.7" ry="1.4" fill="#1A1A1A" opacity="0.6"/>
  <circle cx="20" cy="20" r="1.5" fill="#62A262C0" opacity="0.9"/><circle cx="60" cy="20" r="1.6" fill="#62A262C0" opacity="0.9"/><circle cx="20" cy="60" r="1.7" fill="#62A262C0" opacity="0.9"/><circle cx="60" cy="60" r="1.8" fill="#62A262C0" opacity="0.9"/><circle cx="40" cy="12" r="1.9" fill="#62A262C0" opacity="0.9"/><circle cx="12" cy="40" r="2.0" fill="#62A262C0" opacity="0.9"/>
  
</svg>