<svg xmlns="http://www.w3.org/2000/svg" viewBox="0 0 80 80">
  <defs>
    <filter id="gf0908" x="-60%" y="-60%" width="220%" height="220%">
      <feGaussianBlur stdDeviation="4" result="blur"/>
      <feMerge><feMergeNode in="blur"/><feMergeNode in="SourceGraphic"/></feMerge>
    </filter>
    <radialGradient id="bgg0908" cx="50%" cy="50%" r="50%">
      <stop offset="0%" stop-color="#FFC848" stop-opacity="0.7"/>
      <stop offset="100%" stop-color="#E0A020" stop-opacity="0.9"/>
    </radialGradient>
  </defs>
  <circle cx="40" cy="40" r="35.5" fill="none" stroke="#FFC84880" stroke-width="1" stroke-dasharray="3,3" opacity="0.5"/><circle cx="40" cy="38" r="39.5" fill="none" stroke="#FFC84880" stroke-width="1" stroke-dasharray="3,3" opacity="0.5"/>
  <circle cx="40" cy="40" r="40" fill="url(#bgg0908)" filter="url(#gf0908)"/>
  <ellipse cx="40" cy="46" rx="13" ry="14" fill="#E0A020"/>
    <ellipse cx="40" cy="46" rx="11" ry="12" fill="#FFC848" opacity="0.4"/>
    <polygon points="40,15.8 35,28 45,28" fill="#E05030" opacity="0.9"/>
    <polygon points="37,19.8 33,13.8 40,21.8" fill="#E05030" opacity="0.8"/>
    <polygon points="43,19.8 47,13.8 40,21.8" fill="#E05030" opacity="0.8"/>
    <polygon points="40,60 36,66 44,66" fill="#D07020"/>
    <path d="M34,46 Q24,42 26,52" stroke="#E0A020" stroke-width="3" fill="none" stroke-linecap="round"/>
    <path d="M46,46 Q56,42 54,52" stroke="#E0A020" stroke-width="3" fill="none" stroke-linecap="round"/>
    <circle cx="36" cy="42" r="2.7" fill="#1A1A1A"/>
    <circle cx="36.7" cy="41.3" r="0.945" fill="white" opacity="0.8"/>
    <circle cx="44" cy="42" r="2.7" fill="#1A1A1A"/>
    <circle cx="44.7" cy="41.3" r="0.945" fill="white" opacity="0.8"/>
  <circle cx="20" cy="20" r="1.5" fill="#FFC848C0" opacity="0.9"/><circle cx="60" cy="20" r="1.6" fill="#FFC848C0" opacity="0.9"/><circle cx="20" cy="60" r="1.7" fill="#FFC848C0" opacity="0.9"/><circle cx="60" cy="60" r="1.8" fill="#FFC848C0" opacity="0.9"/>
  
</svg>