<svg xmlns="http://www.w3.org/2000/svg" viewBox="0 0 80 80">
  <defs>
    <filter id="gf1003" x="-60%" y="-60%" width="220%" height="220%">
      <feGaussianBlur stdDeviation="0" result="blur"/>
      <feMerge><feMergeNode in="blur"/><feMergeNode in="SourceGraphic"/></feMerge>
    </filter>
    <radialGradient id="bgg1003" cx="50%" cy="50%" r="50%">
      <stop offset="0%" stop-color="#C89878" stop-opacity="0.7"/>
      <stop offset="100%" stop-color="#A07050" stop-opacity="0.9"/>
    </radialGradient>
  </defs>
  
  <circle cx="40" cy="40" r="40" fill="url(#bgg1003)" filter="url(#gf1003)"/>
  <ellipse cx="40" cy="42" rx="11" ry="10" fill="#A07050"/>
    <ellipse cx="40" cy="42" rx="9" ry="8" fill="#C89878" opacity="0.35"/>
    <polygon points="27,39 23,19 33,37" fill="#A07050"/>
    <polygon points="53,39 57,19 47,37" fill="#A07050"/>
    <polygon points="28,37 25,21 32,37" fill="#C89878" opacity="0.6"/>
    <polygon points="52,37 55,21 48,37" fill="#C89878" opacity="0.6"/>
    <ellipse cx="40" cy="50" rx="4" ry="3" fill="#3A2010"/>
    <circle cx="38.8" cy="50" r="0.8" fill="#1A1A1A"/>
    <circle cx="41.2" cy="50" r="0.8" fill="#1A1A1A"/>
    <circle cx="36" cy="39" r="1.9" fill="#1A1A1A"/>
    <circle cx="36.7" cy="38.3" r="0.6649999999999999" fill="white" opacity="0.8"/>
    <circle cx="44" cy="39" r="1.9" fill="#1A1A1A"/>
    <circle cx="44.7" cy="38.3" r="0.6649999999999999" fill="white" opacity="0.8"/>
  
  
</svg>